#!OML:ASF E:\Steps\Project 1\Capture day 1\Session 2\Subject.ASF
:FULLY-SPECIFIED
:DEGREES
159
root -1.48048 17.9686 20.7417 -154.117 -0.373988 178.382
lowerback -27.545 -2.50598 -6.45429
upperback -0.756303 -1.7608 -0.135394
thorax 13.9833 -1.42386 2.66588
lowerneck -2.87798 -4.00085 -0.140249
upperneck 8.08229 -5.47653 3.91978
head 3.22746 -2.49561 1.09874
rclavicle 3.08116e-015 1.59028e-014
rhumerus -41.1519 -15.9182 -78.2705
rradius 35.7406
rwrist -4.73032
rhand -6.8255 -55.9567
rfingers 7.12502
rthumb 19.0386 -85.0449
lclavicle 3.08116e-015 1.59028e-014
lhumerus -30.5875 4.8884 80.2546
lradius 24.1258
lwrist -3.92657
lhand -22.088 -11.6982
lfingers 7.12502
lthumb 4.32378 18.2377
rfemur -24.6449 5.49388 19.6051
rtibia 8.50807
rfoot -18.0737 -4.17917
rtoes -25.7658
lfemur -23.8 -6.23081 -23.6217
ltibia 7.72173
lfoot -6.15237 -6.22622
ltoes -22.4428
160
root -1.47881 17.984 20.7584 -154.042 -0.39035 178.73
lowerback -27.3034 -2.40301 -6.1474
upperback -1.24264 -1.76646 -0.113469
thorax 14.0545 -1.42021 2.67815
lowerneck -2.64236 -3.98022 -0.198886
upperneck 7.9254 -5.44144 3.98641
head 3.1328 -2.48314 1.13684
rclavicle 2.05742e-014 1.82882e-014
rhumerus -41.2796 -15.8975 -78.2452
rradius 35.7788
rwrist -4.71437
rhand -6.821 -56.2332
rfingers 7.12502
rthumb 19.043 -85.321
lclavicle 2.05742e-014 1.82882e-014
lhumerus -30.6724 4.85508 80.2797
lradius 24.3342
lwrist -3.82133
lhand -21.8057 -10.4624
lfingers 7.12502
lthumb 4.59638 19.4677
rfemur -24.936 5.83943 19.9247
rtibia 8.73727
rfoot -18.1033 -4.42873
rtoes -25.9433
lfemur -24.0837 -6.24008 -23.0579
ltibia 7.88444
lfoot -6.19071 -6.0148
ltoes -22.7665
161
root -1.4974 17.9371 20.6924 -154.069 -0.24902 178.228
lowerback -28.3359 -2.50181 -6.4013
upperback -0.603905 -1.70057 -0.227342
thorax 14.521 -1.40728 2.53418
lowerneck -2.51756 -4.00511 -0.172903
upperneck 7.77422 -5.47087 3.96157
head 3.05641 -2.50374 1.12584
rclavicle -6.95746e-015 -2.46493e-014
rhumerus -41.2168 -15.9201 -78.2436
rradius 35.7205
rwrist -4.7162
rhand -6.86005 -56.4353
rfingers 7.12502
rthumb 19.0054 -85.5267
lclavicle -6.95746e-015 -2.46493e-014
lhumerus -30.5962 4.93406 80.2909
lradius 24.4671
lwrist -3.81517
lhand -21.884 -12.7519
lfingers 7.12502
lthumb 4.5208 17.1799
rfemur -24.1994 4.25846 19.7403
rtibia 8.19646
rfoot -18.3171 -2.91841
rtoes -25.777
lfemur -23.1762 -6.15067 -24.1857
ltibia 7.08653
lfoot -6.10604 -6.49052
ltoes -21.7657
162
root -1.50516 17.9182 20.67 -154.106 -0.0825816 178.062
lowerback -28.8663 -2.51408 -6.48848
upperback -0.348613 -1.61074 -0.298555
thorax 15.0582 -1.38081 2.52184
lowerneck -2.64601 -4.03902 -0.116618
upperneck 7.71498 -5.52144 3.89807
head 3.05706 -2.53206 1.09127
rclavicle 3.08116e-015 1.59028e-015
rhumerus -40.9242 -16.0105 -78.2887
rradius 35.6653
rwrist -4.76414
rhand -6.91896 -56.7632
rfingers 7.12502
rthumb 18.9488 -85.8603
lclavicle 3.08116e-015 1.59028e-015
lhumerus -30.323 4.9385 80.3743
lradius 24.601
lwrist -3.78613
lhand -21.9176 -12.2822
lfingers 7.12502
lthumb 4.48833 17.6503
rfemur -23.9801 3.6098 19.663
rtibia 8.08041
rfoot -18.3764 -2.19426
rtoes -25.7899
lfemur -22.8213 -6.1481 -24.5871
ltibia 6.75481
lfoot -6.02779 -6.48158
ltoes -21.1016
163
root -1.50548 17.9185 20.6749 -154.119 0.0456259 177.999
lowerback -28.6324 -2.49009 -6.58467
upperback -0.500197 -1.58515 -0.315936
thorax 14.7686 -1.37284 2.57208
lowerneck -2.53873 -4.04983 -0.113841
upperneck 7.8368 -5.52768 3.84331
head 3.07645 -2.53308 1.07439
rclavicle 5.36719e-015 2.18663e-014
rhumerus -41.173 -15.9887 -78.1849
rradius 35.7227
rwrist -4.63054
rhand -7.17328 -56.0502
rfingers 7.12502
rthumb 18.7042 -85.171
lclavicle 5.36719e-015 2.18663e-014
lhumerus -30.5863 4.7092 80.4588
lradius 24.8476
lwrist -3.62301
lhand -22.0284 -11.4693
lfingers 7.12502
lthumb 4.38139 18.4654
rfemur -24.0549 3.50172 19.5967
rtibia 8.17503
rfoot -18.3482 -2.00191
rtoes -25.8448
lfemur -22.8422 -6.08381 -24.7022
ltibia 6.78443
lfoot -5.99124 -6.43781
ltoes -21.1626
164
root -1.50873 17.9169 20.6731 -153.992 0.113435 178.112
lowerback -28.9449 -2.45388 -6.44779
upperback -0.450629 -1.56139 -0.296449
thorax 14.9692 -1.35928 2.5192
lowerneck -2.33146 -4.05721 -0.130652
upperneck 7.62524 -5.53288 3.89226
head 2.96804 -2.54201 1.0977
rclavicle 1.27222e-014 -1.90833e-014
rhumerus -41.0677 -16.0384 -78.163
rradius 35.6721
rwrist -4.39358
rhand -8.59982 -52.7223
rfingers 7.12502
rthumb 17.3316 -81.9695
lclavicle 1.27222e-014 -1.90833e-014
lhumerus -30.4673 4.55181 80.551
lradius 24.9701
lwrist -3.4321
lhand -21.8956 -11.6825
lfingers 7.12502
lthumb 4.50956 18.2495
rfemur -24.2237 3.50414 19.7039
rtibia 8.2074
rfoot -18.3489 -1.82612
rtoes -25.6846
lfemur -22.9685 -6.12233 -24.5858
ltibia 6.77774
lfoot -6.04873 -6.29359
ltoes -21.9152
165
root -1.50931 17.9179 20.6717 -153.995 -0.0373993 178.193
lowerback -29.0151 -2.49704 -6.36265
upperback -0.394116 -1.63766 -0.248732
thorax 15.0766 -1.3886 2.49296
lowerneck -2.2714 -4.0543 -0.131849
upperneck 7.50914 -5.52867 3.91686
head 2.91825 -2.54321 1.10757
rclavicle -9.54166e-015 -2.38542e-015
rhumerus -40.9553 -15.9839 -78.216
rradius 35.5563
rwrist -4.69545
rhand -7.56614 -55.2988
rfingers 7.12502
rthumb 18.3263 -84.4555
lclavicle -9.54166e-015 -2.38542e-015
lhumerus -30.311 4.44973 80.6413
lradius 25.0105
lwrist -3.21904
lhand -21.5632 -12.073
lfingers 7.12502
lthumb 4.83056 17.852
rfemur -24.1329 3.53442 19.8296
rtibia 8.09095
rfoot -18.2933 -1.92665
rtoes -25.8756
lfemur -22.9668 -6.09297 -24.4711
ltibia 6.78453
lfoot -5.98019 -6.42625
ltoes -22.0293
